<svg width="31" height="26" viewBox="0 0 31 26" fill="none" xmlns="http://www.w3.org/2000/svg">
<path d="M2.20085 11.2211C2.20085 11.2211 15.6684 5.73309 20.3391 3.80063C22.1297 3.02773 28.2017 0.554181 28.2017 0.554181C28.2017 0.554181 31.0044 -0.527901 30.7706 2.10012C30.6929 3.18231 30.07 6.96975 29.4473 11.0665C28.5131 16.8637 27.501 23.2019 27.501 23.2019C27.501 23.2019 27.3453 24.9798 26.022 25.289C24.6986 25.5981 22.5188 24.2069 22.1297 23.8976C21.8182 23.6658 16.2911 20.1874 14.2671 18.4869C13.7222 18.0231 13.0994 17.0956 14.3449 16.0135C17.1474 13.4627 20.4948 10.2935 22.5188 8.28388C23.453 7.35626 24.3871 5.192 20.4948 7.82002C14.9677 11.6076 9.51845 15.1632 9.51845 15.1632C9.51845 15.1632 8.27289 15.9361 5.93749 15.2404C3.602 14.5448 0.877372 13.6173 0.877372 13.6173C0.877372 13.6173 -0.990844 12.4578 2.20085 11.2211Z" fill="white"/>
</svg>
