<svg width="230" height="48" viewBox="0 0 230 48" fill="none" xmlns="http://www.w3.org/2000/svg">
<path fill-rule="evenodd" clip-rule="evenodd" d="M199.772 13.872V0H182.846V47.1543H199.772V33.2694L210.887 23.5772L199.772 13.872ZM230 47.1543V28.0415L208.105 47.1543H230ZM230 19.1128L208.105 0H230V19.1128Z" fill="white"/>
<path d="M74.6404 31.479C76.4887 29.6012 78.8212 28.6721 81.6281 28.6721C83.7333 28.6721 85.3839 29.0082 86.6193 29.6901V31.825C85.1269 31.0442 83.506 30.6488 81.7368 30.6488C79.5723 30.6488 77.7834 31.3506 76.3503 32.7738C74.9172 34.1773 74.1957 36.0551 74.1957 38.4469C74.1957 40.6609 74.8381 42.4893 76.1032 43.8928C77.3683 45.2666 79.1869 45.9683 81.549 45.9683C82.8734 45.9683 84.1286 45.7212 85.285 45.2369V38.3679H87.3902V46.7294C85.8187 47.4904 83.7432 47.8561 81.1932 47.8561C78.2479 47.8561 75.9747 46.9567 74.3143 45.1875C72.6835 43.4184 71.873 41.1748 71.873 38.4568C71.873 35.7389 72.8021 33.347 74.6503 31.4988" fill="white"/>
<path d="M98.1044 29.0675C99.8143 29.0675 101.336 29.5716 102.592 30.6093C103.886 31.6175 104.529 33.0209 104.529 34.8494C104.529 36.1639 104.074 37.3697 103.185 38.4668C102.285 39.5342 101.05 40.2656 99.4782 40.6807L105.537 47.5794H102.73L96.1672 39.8109V39.4452C100.121 39.3069 102.255 37.3697 102.255 35.0075C102.255 32.4279 100.457 30.8861 97.7684 30.8861H93.7556V47.5794H91.4824V29.0576H98.1044V29.0675Z" fill="white"/>
<path d="M111.754 43.794C113.068 45.2271 114.867 45.9288 117.081 45.9288C119.295 45.9288 121.005 45.1974 122.359 43.7446C123.733 42.262 124.405 40.4632 124.405 38.3284C124.405 36.1935 123.703 34.3651 122.329 32.9122C120.955 31.4297 119.216 30.6983 117.081 30.6983C114.946 30.6983 113.177 31.4297 111.803 32.8825C110.429 34.3453 109.757 36.1639 109.757 38.3284C109.757 40.4929 110.429 42.3609 111.754 43.794ZM110.014 45.1678C108.304 43.369 107.435 41.0958 107.435 38.3284C107.435 35.561 108.354 33.3866 110.242 31.5285C112.119 29.6506 114.422 28.7314 117.091 28.7314C119.759 28.7314 122.112 29.6605 123.94 31.5087C125.759 33.3273 126.658 35.6005 126.658 38.3284C126.658 41.0562 125.759 43.3196 123.94 45.148C122.141 46.9666 119.868 47.866 117.091 47.866C114.116 47.866 111.764 46.9666 110.014 45.1678Z" fill="white"/>
<path d="M142.659 29.0377H144.873V40.7102C144.873 42.8154 144.23 44.5549 142.935 45.8694C141.641 47.1839 139.852 47.856 137.579 47.856C132.953 47.856 130.255 45.0589 130.255 40.6707V29.0278H132.498V40.5026C132.498 42.0445 132.923 43.3392 133.783 44.377C134.653 45.3851 135.918 45.8892 137.579 45.8892C140.919 45.8892 142.659 43.7247 142.659 40.6212V29.0278V29.0377Z" fill="white"/>
<path d="M151.505 30.8861V39.5342H155.32C156.812 39.5342 157.929 39.1092 158.69 38.2691C159.451 37.3993 159.836 36.3912 159.836 35.2348C159.836 34.0785 159.411 33.0209 158.601 32.1709C157.791 31.3012 156.585 30.8762 154.954 30.8762H151.505V30.8861ZM149.231 47.5794V29.0576H155.577C157.652 29.0576 159.283 29.6704 160.43 30.8762C161.606 32.0919 162.199 33.5151 162.199 35.1657C162.199 37.0534 161.556 38.5656 160.291 39.7121C159.026 40.8586 157.455 41.4219 155.577 41.4219H151.534V47.5695H149.231V47.5794Z" fill="white"/>
<path d="M16.6538 19.9054V24.017H0V0.434814H15.9718V4.54637H5.32723V9.76488H14.8649V13.7282H5.32723V19.9054H16.6538Z" fill="white"/>
<path d="M35.4126 0.444824H40.7003V14.6673C40.7003 17.5631 39.8404 19.9154 38.091 21.7439C36.3416 23.5328 33.8411 24.4223 30.5894 24.4223C23.9081 24.4223 20.4785 20.6764 20.4785 14.776V0.444824H25.8057V14.7364C25.8057 17.7015 27.486 20.0637 30.6289 20.0637C33.7719 20.0637 35.4126 17.8102 35.4126 14.9143V0.444824Z" fill="white"/>
<path d="M54.7652 0.474609C57.1965 0.474609 59.2721 1.15657 60.9424 2.55015C62.6621 3.9042 63.5121 5.80184 63.5121 8.19366C63.5121 10.9116 61.9703 13.8767 58.7977 15.3395L65.0144 24.0172H58.9459L52.7292 14.4104V13.9162C56.4454 13.4912 58.2639 11.2674 58.2639 8.94481C58.2639 6.22683 56.5146 4.51698 53.7669 4.51698H50.5449V24.0271H45.2275V0.474609H54.7652Z" fill="white"/>
<path d="M74.0574 6.65163C72.6638 8.15393 71.9819 10.012 71.9819 12.2259C71.9819 14.4399 72.6638 16.4067 73.9784 17.909C75.3423 19.4113 77.1213 20.1526 79.3748 20.1526C81.6282 20.1526 83.3381 19.4014 84.6625 17.8695C86.0165 16.3375 86.6985 14.4794 86.6985 12.2259C86.6985 9.9725 86.0165 8.15393 84.6625 6.65163C83.3381 5.14933 81.5492 4.40806 79.3748 4.40806C77.2004 4.40806 75.4411 5.15921 74.0574 6.65163ZM70.0546 20.9828C67.7616 18.6601 66.625 15.7643 66.625 12.2259C66.625 8.68764 67.8407 5.90048 70.2325 3.53831C72.6638 1.17614 75.6981 0 79.3451 0C82.9922 0 86.0659 1.17614 88.4182 3.53831C90.7804 5.86094 91.9565 8.75682 91.9565 12.2259C91.9565 15.6951 90.7804 18.6206 88.3886 20.9432C86.0264 23.2659 82.9922 24.4124 79.3155 24.4124C75.6388 24.4124 72.3871 23.2659 70.0645 20.9828" fill="white"/>
<path d="M96.1768 0.444824H101.494V19.9055H112.396V24.0171H96.1768V0.444824Z" fill="white"/>
<path d="M121.745 0.444824H116.418V24.0171H121.745V0.444824Z" fill="white"/>
<path d="M131.075 24.0171H125.748V0.444824H141.898V4.5465H131.075V10.5853H140.544V14.5486H131.075V24.0171Z" fill="white"/>
<path d="M165.035 4.50695H158.176V24.0171H152.859V4.50695H145.96V0.405273H165.035V4.50695Z" fill="white"/>
</svg>
