<svg width="150" height="32" viewBox="0 0 150 32" fill="none" xmlns="http://www.w3.org/2000/svg">
<path fill-rule="evenodd" clip-rule="evenodd" d="M130.286 9.04694V0H119.247V30.7528H130.286V21.6975L137.535 15.3764L130.286 9.04694ZM150 30.7528V18.288L135.721 30.7528H150ZM150 12.4649L135.721 0H150V12.4649Z" fill="#D50032"/>
<path d="M48.6788 20.5298C49.8842 19.3051 51.4054 18.6992 53.236 18.6992C54.609 18.6992 55.6854 18.9184 56.4911 19.3631V20.7554C55.5178 20.2462 54.4607 19.9884 53.3069 19.9884C51.8953 19.9884 50.7286 20.446 49.794 21.3742C48.8593 22.2895 48.3888 23.5142 48.3888 25.0741C48.3888 26.518 48.8078 27.7104 49.6328 28.6257C50.4579 29.5217 51.6439 29.9794 53.1845 29.9794C54.0482 29.9794 54.8668 29.8182 55.621 29.5024V25.0225H56.9939V30.4757C55.969 30.972 54.6154 31.2105 52.9524 31.2105C51.0316 31.2105 49.549 30.6239 48.4661 29.4701C47.4026 28.3163 46.874 26.8531 46.874 25.0806C46.874 23.308 47.4799 21.7481 48.6853 20.5427" fill="#D50032"/>
<path d="M63.9808 18.9571C65.0959 18.9571 66.0886 19.2859 66.9072 19.9627C67.7516 20.6201 68.1706 21.5354 68.1706 22.7279C68.1706 23.5852 67.8741 24.3716 67.2939 25.0871C66.7074 25.7832 65.9016 26.2602 64.8768 26.5309L68.828 31.0301H66.9974L62.7174 25.9637V25.7252C65.2957 25.635 66.688 24.3716 66.688 22.8311C66.688 21.1487 65.5149 20.1432 63.7616 20.1432H61.1446V31.0301H59.6621V18.9507H63.9808V18.9571Z" fill="#D50032"/>
<path d="M72.8822 28.5612C73.7395 29.4958 74.9127 29.9535 76.3565 29.9535C77.8004 29.9535 78.9155 29.4765 79.7986 28.529C80.6945 27.5621 81.1329 26.389 81.1329 24.9967C81.1329 23.6044 80.6752 22.4119 79.7792 21.4644C78.8833 20.4975 77.7488 20.0205 76.3565 20.0205C74.9642 20.0205 73.8104 20.4975 72.9145 21.445C72.0185 22.399 71.5802 23.585 71.5802 24.9967C71.5802 26.4083 72.0185 27.6265 72.8822 28.5612ZM71.7478 29.4571C70.6327 28.284 70.0654 26.8015 70.0654 24.9967C70.0654 23.1918 70.6649 21.7738 71.896 20.562C73.1207 19.3373 74.6226 18.7378 76.363 18.7378C78.1033 18.7378 79.6374 19.3437 80.8299 20.5491C82.0159 21.7351 82.6025 23.2176 82.6025 24.9967C82.6025 26.7757 82.0159 28.2518 80.8299 29.4443C79.6568 30.6303 78.1742 31.2168 76.363 31.2168C74.4228 31.2168 72.8887 30.6303 71.7478 29.4571Z" fill="#D50032"/>
<path d="M93.0387 18.9378H94.4826V26.5503C94.4826 27.9233 94.0636 29.0577 93.2192 29.915C92.3748 30.7723 91.2081 31.2106 89.7256 31.2106C86.7089 31.2106 84.9492 29.3865 84.9492 26.5245V18.9314H86.4124V26.415C86.4124 27.4205 86.6896 28.2649 87.2504 28.9417C87.8176 29.5992 88.6427 29.9279 89.7256 29.9279C91.9042 29.9279 93.0387 28.5163 93.0387 26.4923V18.9314V18.9378Z" fill="#D50032"/>
<path d="M98.8077 20.1432V25.7832H101.296C102.269 25.7832 102.997 25.5061 103.494 24.9582C103.99 24.3909 104.242 23.7335 104.242 22.9793C104.242 22.2251 103.964 21.5354 103.436 20.9811C102.907 20.4139 102.121 20.1367 101.057 20.1367H98.8077V20.1432ZM97.3252 31.0301V18.9507H101.463C102.817 18.9507 103.881 19.3503 104.628 20.1367C105.395 20.9295 105.782 21.8577 105.782 22.9342C105.782 24.1653 105.363 25.1515 104.538 25.8992C103.713 26.647 102.688 27.0144 101.463 27.0144H98.8271V31.0237H97.3252V31.0301Z" fill="#D50032"/>
<path d="M10.8612 12.9817V15.6631H0V0.283447H10.4164V2.9649H3.47428V6.36828H9.69448V8.95304H3.47428V12.9817H10.8612Z" fill="#D50032"/>
<path d="M23.0951 0.290039H26.5436V9.56554C26.5436 11.4542 25.9828 12.9883 24.8419 14.1807C23.701 15.3474 22.0702 15.9275 19.9495 15.9275C15.5922 15.9275 13.3555 13.4846 13.3555 9.63644V0.290039H16.8298V9.61066C16.8298 11.5444 17.9255 13.0849 19.9753 13.0849C22.0251 13.0849 23.0951 11.6153 23.0951 9.72668V0.290039Z" fill="#D50032"/>
<path d="M35.7163 0.309326C37.302 0.309326 38.6556 0.754086 39.7449 1.66294C40.8665 2.54602 41.4208 3.78361 41.4208 5.34349C41.4208 7.11609 40.4153 9.04982 38.3462 10.0038L42.4006 15.6632H38.4429L34.3885 9.3979V9.07561C36.8121 8.79844 37.9981 7.34813 37.9981 5.83337C37.9981 4.06078 36.8572 2.94566 35.0653 2.94566H32.9639V15.6697H29.4961V0.309326H35.7163Z" fill="#D50032"/>
<path d="M48.2984 4.33802C47.3895 5.31778 46.9448 6.52959 46.9448 7.97345C46.9448 9.4173 47.3895 10.7 48.2468 11.6798C49.1364 12.6595 50.2966 13.143 51.7662 13.143C53.2359 13.143 54.351 12.6531 55.2147 11.654C56.0978 10.6549 56.5426 9.44309 56.5426 7.97345C56.5426 6.50381 56.0978 5.31778 55.2147 4.33802C54.351 3.35826 53.1843 2.87482 51.7662 2.87482C50.3482 2.87482 49.2008 3.3647 48.2984 4.33802ZM45.6879 13.6844C44.1924 12.1697 43.4512 10.281 43.4512 7.97345C43.4512 5.66585 44.244 3.84814 45.8039 2.30759C47.3895 0.767049 49.3684 0 51.7469 0C54.1254 0 56.13 0.767049 57.6641 2.30759C59.2047 3.82236 59.9717 5.71097 59.9717 7.97345C59.9717 10.2359 59.2047 12.1439 57.6448 13.6586C56.1043 15.1734 54.1254 15.9211 51.7276 15.9211C49.3297 15.9211 47.2091 15.1734 45.6943 13.6844" fill="#D50032"/>
<path d="M62.7236 0.290039H66.1915V12.9818H73.3012V15.6633H62.7236V0.290039Z" fill="#D50032"/>
<path d="M79.3991 0.290039H75.9248V15.6633H79.3991V0.290039Z" fill="#D50032"/>
<path d="M85.484 15.6633H82.0098V0.290039H92.5422V2.96504H85.484V6.90342H91.6591V9.48819H85.484V15.6633Z" fill="#D50032"/>
<path d="M107.632 2.93941H103.158V15.6634H99.6906V2.93941H95.1914V0.264404H107.632V2.93941Z" fill="#D50032"/>
</svg>
